<svg width="696.9875px" height="246.79999999999998px" xmlns="http://www.w3.org/2000/svg" viewBox="-98.49374999999998 -48.39999999999999 696.9875 246.79999999999998" style="background: rgba(0, 0, 0, 0);" preserveAspectRatio="xMidYMid"><defs><linearGradient id="editing-rainbow-gradient" x1="0" x2="1" y1="0.5" y2="0.5" gradientUnits="objectBoundingBox"><stop offset="0.00" stop-color="#f00"></stop><stop offset="0.17" stop-color="#f90"></stop><stop offset="0.34" stop-color="#ff4"></stop><stop offset="0.51" stop-color="#9f0"></stop><stop offset="0.68" stop-color="#09f"></stop><stop offset="0.85" stop-color="#579ced"></stop><stop offset="1.00" stop-color="rgba(76.45239274483376%,44.16669614779874%,97.97619047619048%,0.843)"></stop></linearGradient><filter id="editing-rainbow" x="-100%" y="-100%" width="300%" height="300%"><feMorphology operator="dilate" radius="1,2" in="SourceGraphic" result="dilate"></feMorphology><feColorMatrix in="dilate" result="color" type="matrix" values="0.7 0 0 0 0  0 0.7 0 0 0  0 0 0.7 0 0  0 0 0 1 0"></feColorMatrix><feOffset dy="2" result="offset"></feOffset><feGaussianBlur stdDeviation="3"></feGaussianBlur><feOffset dy="3"></feOffset><feColorMatrix result="blur" type="matrix" values="0.7 0 0 0 0  0 0.7 0 0 0  0 0 0.7 0 0  0 0 0 1 0"></feColorMatrix><feMerge><feMergeNode in="blur"></feMergeNode><feMergeNode in="offset"></feMergeNode><feMergeNode in="SourceGraphic"></feMergeNode></feMerge></filter></defs><g filter="url(#editing-rainbow)"><g transform="translate(-9.335015416145325, 106.83000183105469)"><path d="M37.03-47.92L37.03-47.92L37.03-47.92Q29.40-47.92 25.34-43.26L25.34-43.26L25.34-43.26Q21.29-38.61 21.29-30.10L21.29-30.10L21.29-30.10Q21.29-21.48 25.79-16.83L25.79-16.83L25.79-16.83Q30.29-12.18 37.92-12.18L37.92-12.18L37.92-12.18Q41.98-12.18 44.80-13.27L44.80-13.27L44.80-13.27Q47.62-14.36 50.19-15.74L50.19-15.74L50.19-15.74Q51.88-14.36 52.82-12.42L52.82-12.42L52.82-12.42Q53.76-10.49 53.76-7.92L53.76-7.92L53.76-7.92Q53.76-3.86 49.25-1.04L49.25-1.04L49.25-1.04Q44.75 1.78 35.54 1.78L35.54 1.78L35.54 1.78Q28.91 1.78 23.07-0.10L23.07-0.10L23.07-0.10Q17.23-1.98 12.87-5.89L12.87-5.89L12.87-5.89Q8.51-9.80 5.99-15.79L5.99-15.79L5.99-15.79Q3.47-21.78 3.47-30.10L3.47-30.10L3.47-30.10Q3.47-37.82 5.89-43.71L5.89-43.71L5.89-43.71Q8.32-49.60 12.52-53.66L12.52-53.66L12.52-53.66Q16.73-57.72 22.37-59.80L22.37-59.80L22.37-59.80Q28.02-61.88 34.45-61.88L34.45-61.88L34.45-61.88Q43.56-61.88 48.56-58.91L48.56-58.91L48.56-58.91Q53.56-55.94 53.56-51.28L53.56-51.28L53.56-51.28Q53.56-48.71 52.27-46.83L52.27-46.83L52.27-46.83Q50.98-44.95 49.30-43.86L49.30-43.86L49.30-43.86Q46.73-45.54 43.81-46.73L43.81-46.73L43.81-46.73Q40.89-47.92 37.03-47.92ZM77.22-58.21L77.22-58.21L77.22-58.21Q78.90-59.20 82.32-60.09L82.32-60.09L82.32-60.09Q85.73-60.98 89.20-60.98L89.20-60.98L89.20-60.98Q94.15-60.98 97.96-59.55L97.96-59.55L97.96-59.55Q101.77-58.11 102.86-55.04L102.86-55.04L102.86-55.04Q104.64-49.90 106.72-43.07L106.72-43.07L106.72-43.07Q108.80-36.23 110.88-28.96L110.88-28.96L110.88-28.96Q112.96-21.68 114.94-14.60L114.94-14.60L114.94-14.60Q116.92-7.52 118.40-2.08L118.40-2.08L118.40-2.08Q117.22-0.69 114.84 0.15L114.84 0.15L114.84 0.15Q112.46 0.99 109.20 0.99L109.20 0.99L109.20 0.99Q106.82 0.99 105.19 0.59L105.19 0.59L105.19 0.59Q103.55 0.20 102.51-0.59L102.51-0.59L102.51-0.59Q101.47-1.39 100.83-2.67L100.83-2.67L100.83-2.67Q100.19-3.96 99.69-5.64L99.69-5.64L97.91-12.47L79.99-12.47L79.99-12.47Q79.20-9.50 78.41-6.34L78.41-6.34L78.41-6.34Q77.62-3.17 76.82-0.20L76.82-0.20L76.82-0.20Q75.44 0.30 73.90 0.64L73.90 0.64L73.90 0.64Q72.37 0.99 70.19 0.99L70.19 0.99L70.19 0.99Q65.14 0.99 62.72-0.74L62.72-0.74L62.72-0.74Q60.29-2.48 60.29-5.54L60.29-5.54L60.29-5.54Q60.29-6.93 60.69-8.32L60.69-8.32L60.69-8.32Q61.08-9.70 61.58-11.58L61.58-11.58L61.58-11.58Q62.27-14.26 63.51-18.22L63.51-18.22L63.51-18.22Q64.75-22.18 66.23-26.78L66.23-26.78L66.23-26.78Q67.72-31.38 69.40-36.23L69.40-36.23L69.40-36.23Q71.08-41.09 72.57-45.39L72.57-45.39L72.57-45.39Q74.05-49.70 75.29-53.06L75.29-53.06L75.29-53.06Q76.53-56.43 77.22-58.21ZM89.69-45.44L89.10-45.44L89.10-45.44Q87.71-41.28 85.98-36.18L85.98-36.18L85.98-36.18Q84.25-31.09 82.86-25.84L82.86-25.84L95.14-25.84L95.14-25.84Q93.75-31.19 92.32-36.28L92.32-36.28L92.32-36.28Q90.88-41.38 89.69-45.44L89.69-45.44ZM149.00-19.40L143.75-19.40L143.75-0.40L143.75-0.40Q142.66-0.10 140.33 0.20L140.33 0.20L140.33 0.20Q138.01 0.49 135.73 0.49L135.73 0.49L135.73 0.49Q133.45 0.49 131.72 0.15L131.72 0.15L131.72 0.15Q129.99-0.20 128.85-1.09L128.85-1.09L128.85-1.09Q127.71-1.98 127.12-3.56L127.12-3.56L127.12-3.56Q126.52-5.15 126.52-7.72L126.52-7.72L126.52-54.35L126.52-54.35Q126.52-56.43 127.66-57.57L127.66-57.57L127.66-57.57Q128.80-58.71 130.78-59.40L130.78-59.40L130.78-59.40Q134.15-60.59 138.60-61.13L138.60-61.13L138.60-61.13Q143.06-61.68 148.10-61.68L148.10-61.68L148.10-61.68Q161.77-61.68 168.70-55.94L168.70-55.94L168.70-55.94Q175.63-50.19 175.63-40.39L175.63-40.39L175.63-40.39Q175.63-34.25 172.46-29.90L172.46-29.90L172.46-29.90Q169.29-25.54 164.93-23.17L164.93-23.17L164.93-23.17Q168.50-18.32 171.96-14.06L171.96-14.06L171.96-14.06Q175.43-9.80 177.41-6.34L177.41-6.34L177.41-6.34Q176.42-2.87 173.79-1.04L173.79-1.04L173.79-1.04Q171.17 0.79 167.90 0.79L167.90 0.79L167.90 0.79Q165.73 0.79 164.14 0.30L164.14 0.30L164.14 0.30Q162.56-0.20 161.37-1.09L161.37-1.09L161.37-1.09Q160.18-1.98 159.19-3.27L159.19-3.27L159.19-3.27Q158.20-4.55 157.31-6.04L157.31-6.04L149.00-19.40ZM143.65-32.57L149.99-32.57L149.99-32.57Q153.75-32.57 155.93-34.50L155.93-34.50L155.93-34.50Q158.10-36.43 158.10-40.19L158.10-40.19L158.10-40.19Q158.10-43.96 155.68-45.89L155.68-45.89L155.68-45.89Q153.25-47.82 148.00-47.82L148.00-47.82L148.00-47.82Q146.52-47.82 145.63-47.72L145.63-47.72L145.63-47.72Q144.74-47.62 143.65-47.42L143.65-47.42L143.65-32.57ZM204.04-47.32L204.04-12.87L204.04-12.87Q205.13-12.67 206.71-12.52L206.71-12.52L206.71-12.52Q208.30-12.38 209.68-12.38L209.68-12.38L209.68-12.38Q213.05-12.38 215.87-13.37L215.87-13.37L215.87-13.37Q218.69-14.36 220.72-16.43L220.72-16.43L220.72-16.43Q222.75-18.51 223.89-21.83L223.89-21.83L223.89-21.83Q225.03-25.15 225.03-29.80L225.03-29.80L225.03-29.80Q225.03-38.71 220.87-43.21L220.87-43.21L220.87-43.21Q216.71-47.72 209.78-47.72L209.78-47.72L209.78-47.72Q208.40-47.72 206.96-47.62L206.96-47.62L206.96-47.62Q205.52-47.52 204.04-47.32L204.04-47.32ZM209.58 1.58L209.58 1.58L209.58 1.58Q207.90 1.58 205.72 1.49L205.72 1.49L205.72 1.49Q203.54 1.39 201.22 1.09L201.22 1.09L201.22 1.09Q198.89 0.79 196.56 0.35L196.56 0.35L196.56 0.35Q194.24-0.10 192.26-0.89L192.26-0.89L192.26-0.89Q186.81-2.97 186.81-8.12L186.81-8.12L186.81-54.35L186.81-54.35Q186.81-56.43 187.95-57.57L187.95-57.57L187.95-57.57Q189.09-58.71 191.07-59.40L191.07-59.40L191.07-59.40Q195.33-60.79 200.08-61.23L200.08-61.23L200.08-61.23Q204.83-61.68 208.59-61.68L208.59-61.68L208.59-61.68Q216.32-61.68 222.60-59.80L222.60-59.80L222.60-59.80Q228.89-57.92 233.39-54.00L233.39-54.00L233.39-54.00Q237.90-50.09 240.37-44.15L240.37-44.15L240.37-44.15Q242.85-38.21 242.85-30.10L242.85-30.10L242.85-30.10Q242.85-22.18 240.47-16.29L240.47-16.29L240.47-16.29Q238.10-10.40 233.69-6.39L233.69-6.39L233.69-6.39Q229.28-2.38 223.15-0.40L223.15-0.40L223.15-0.40Q217.01 1.58 209.58 1.58ZM273.93-22.47L269.78-23.86L269.78-23.86Q265.42-25.34 261.86-26.88L261.86-26.88L261.86-26.88Q258.29-28.41 255.72-30.59L255.72-30.59L255.72-30.59Q253.14-32.77 251.71-35.79L251.71-35.79L251.71-35.79Q250.27-38.81 250.27-43.16L250.27-43.16L250.27-43.16Q250.27-51.58 256.76-56.63L256.76-56.63L256.76-56.63Q263.24-61.68 274.92-61.68L274.92-61.68L274.92-61.68Q279.18-61.68 282.84-61.08L282.84-61.08L282.84-61.08Q286.51-60.49 289.13-59.25L289.13-59.25L289.13-59.25Q291.75-58.01 293.24-56.08L293.24-56.08L293.24-56.08Q294.72-54.15 294.72-51.58L294.72-51.58L294.72-51.58Q294.72-49.01 293.54-47.17L293.54-47.17L293.54-47.17Q292.35-45.34 290.66-44.05L290.66-44.05L290.66-44.05Q288.49-45.44 284.82-46.48L284.82-46.48L284.82-46.48Q281.16-47.52 276.80-47.52L276.80-47.52L276.80-47.52Q272.35-47.52 270.27-46.28L270.27-46.28L270.27-46.28Q268.19-45.05 268.19-43.16L268.19-43.16L268.19-43.16Q268.19-41.68 269.48-40.74L269.48-40.74L269.48-40.74Q270.76-39.80 273.34-39.01L273.34-39.01L278.59-37.32L278.59-37.32Q287.89-34.35 292.89-29.75L292.89-29.75L292.89-29.75Q297.89-25.15 297.89-17.23L297.89-17.23L297.89-17.23Q297.89-8.81 291.26-3.61L291.26-3.61L291.26-3.61Q284.63 1.58 271.75 1.58L271.75 1.58L271.75 1.58Q267.20 1.58 263.29 0.84L263.29 0.84L263.29 0.84Q259.38 0.10 256.46-1.34L256.46-1.34L256.46-1.34Q253.54-2.77 251.91-4.90L251.91-4.90L251.91-4.90Q250.27-7.03 250.27-9.80L250.27-9.80L250.27-9.80Q250.27-12.67 251.96-14.70L251.96-14.70L251.96-14.70Q253.64-16.73 255.62-17.82L255.62-17.82L255.62-17.82Q258.39-15.64 262.40-14.06L262.40-14.06L262.40-14.06Q266.41-12.47 271.16-12.47L271.16-12.47L271.16-12.47Q276.01-12.47 277.99-13.96L277.99-13.96L277.99-13.96Q279.97-15.44 279.97-17.42L279.97-17.42L279.97-17.42Q279.97-19.40 278.39-20.44L278.39-20.44L278.39-20.44Q276.80-21.48 273.93-22.47L273.93-22.47ZM359.67-58.21L359.67-58.21L359.67-58.21Q361.35-59.20 364.77-60.09L364.77-60.09L364.77-60.09Q368.18-60.98 371.65-60.98L371.65-60.98L371.65-60.98Q376.60-60.98 380.41-59.55L380.41-59.55L380.41-59.55Q384.22-58.11 385.31-55.04L385.31-55.04L385.31-55.04Q387.09-49.90 389.17-43.07L389.17-43.07L389.17-43.07Q391.25-36.23 393.33-28.96L393.33-28.96L393.33-28.96Q395.41-21.68 397.39-14.60L397.39-14.60L397.39-14.60Q399.37-7.52 400.85-2.08L400.85-2.08L400.85-2.08Q399.66-0.69 397.29 0.15L397.29 0.15L397.29 0.15Q394.91 0.99 391.64 0.99L391.64 0.99L391.64 0.99Q389.27 0.99 387.63 0.59L387.63 0.59L387.63 0.59Q386.00 0.20 384.96-0.59L384.96-0.59L384.96-0.59Q383.92-1.39 383.28-2.67L383.28-2.67L383.28-2.67Q382.63-3.96 382.14-5.64L382.14-5.64L380.36-12.47L362.44-12.47L362.44-12.47Q361.65-9.50 360.86-6.34L360.86-6.34L360.86-6.34Q360.06-3.17 359.27-0.20L359.27-0.20L359.27-0.20Q357.88 0.30 356.35 0.64L356.35 0.64L356.35 0.64Q354.82 0.99 352.64 0.99L352.64 0.99L352.64 0.99Q347.59 0.99 345.16-0.74L345.16-0.74L345.16-0.74Q342.74-2.48 342.74-5.54L342.74-5.54L342.74-5.54Q342.74-6.93 343.13-8.32L343.13-8.32L343.13-8.32Q343.53-9.70 344.03-11.58L344.03-11.58L344.03-11.58Q344.72-14.26 345.96-18.22L345.96-18.22L345.96-18.22Q347.19-22.18 348.68-26.78L348.68-26.78L348.68-26.78Q350.16-31.38 351.85-36.23L351.85-36.23L351.85-36.23Q353.53-41.09 355.01-45.39L355.01-45.39L355.01-45.39Q356.50-49.70 357.74-53.06L357.74-53.06L357.74-53.06Q358.97-56.43 359.67-58.21ZM372.14-45.44L371.55-45.44L371.55-45.44Q370.16-41.28 368.43-36.18L368.43-36.18L368.43-36.18Q366.70-31.09 365.31-25.84L365.31-25.84L377.59-25.84L377.59-25.84Q376.20-31.19 374.76-36.28L374.76-36.28L374.76-36.28Q373.33-41.38 372.14-45.44L372.14-45.44ZM426.19-32.18L431.44-32.18L431.44-32.18Q435.60-32.18 437.83-34.11L437.83-34.11L437.83-34.11Q440.06-36.04 440.06-40.00L440.06-40.00L440.06-40.00Q440.06-43.76 437.73-45.79L437.73-45.79L437.73-45.79Q435.40-47.82 430.95-47.82L430.95-47.82L430.95-47.82Q429.36-47.82 428.32-47.77L428.32-47.77L428.32-47.77Q427.28-47.72 426.19-47.52L426.19-47.52L426.19-32.18ZM426.29-18.61L426.29-0.40L426.29-0.40Q425.20-0.10 422.88 0.20L422.88 0.20L422.88 0.20Q420.55 0.49 418.27 0.49L418.27 0.49L418.27 0.49Q416.00 0.49 414.27 0.15L414.27 0.15L414.27 0.15Q412.53-0.20 411.34-1.09L411.34-1.09L411.34-1.09Q410.16-1.98 409.56-3.56L409.56-3.56L409.56-3.56Q408.97-5.15 408.97-7.72L408.97-7.72L408.97-54.35L408.97-54.35Q408.97-56.43 410.11-57.57L410.11-57.57L410.11-57.57Q411.25-58.71 413.23-59.40L413.23-59.40L413.23-59.40Q416.59-60.59 420.90-61.13L420.90-61.13L420.90-61.13Q425.20-61.68 429.56-61.68L429.56-61.68L429.56-61.68Q443.22-61.68 450.45-55.84L450.45-55.84L450.45-55.84Q457.68-50.00 457.68-40.00L457.68-40.00L457.68-40.00Q457.68-35.15 456.14-31.23L456.14-31.23L456.14-31.23Q454.61-27.32 451.59-24.50L451.59-24.50L451.59-24.50Q448.57-21.68 443.97-20.15L443.97-20.15L443.97-20.15Q439.36-18.61 433.32-18.61L433.32-18.61L426.29-18.61ZM483.71-32.18L488.96-32.18L488.96-32.18Q493.12-32.18 495.35-34.11L495.35-34.11L495.35-34.11Q497.57-36.04 497.57-40.00L497.57-40.00L497.57-40.00Q497.57-43.76 495.25-45.79L495.25-45.79L495.25-45.79Q492.92-47.82 488.47-47.82L488.47-47.82L488.47-47.82Q486.88-47.82 485.84-47.77L485.84-47.77L485.84-47.77Q484.80-47.72 483.71-47.52L483.71-47.52L483.71-32.18ZM483.81-18.61L483.81-0.40L483.81-0.40Q482.72-0.10 480.40 0.20L480.40 0.20L480.40 0.20Q478.07 0.49 475.79 0.49L475.79 0.49L475.79 0.49Q473.52 0.49 471.78 0.15L471.78 0.15L471.78 0.15Q470.05-0.20 468.86-1.09L468.86-1.09L468.86-1.09Q467.68-1.98 467.08-3.56L467.08-3.56L467.08-3.56Q466.49-5.15 466.49-7.72L466.49-7.72L466.49-54.35L466.49-54.35Q466.49-56.43 467.63-57.57L467.63-57.57L467.63-57.57Q468.76-58.71 470.75-59.40L470.75-59.40L470.75-59.40Q474.11-60.59 478.42-61.13L478.42-61.13L478.42-61.13Q482.72-61.68 487.08-61.68L487.08-61.68L487.08-61.68Q500.74-61.68 507.97-55.84L507.97-55.84L507.97-55.84Q515.20-50.00 515.20-40.00L515.20-40.00L515.20-40.00Q515.20-35.15 513.66-31.23L513.66-31.23L513.66-31.23Q512.13-27.32 509.11-24.50L509.11-24.50L509.11-24.50Q506.09-21.68 501.48-20.15L501.48-20.15L501.48-20.15Q496.88-18.61 490.84-18.61L490.84-18.61L483.81-18.61Z" fill="url(#editing-rainbow-gradient)"></path></g></g><style>text {
  font-size: 64px;
  font-family: Arial Black;
  dominant-baseline: central;
  text-anchor: middle;
}</style></svg>