<svg xmlns="http://www.w3.org/2000/svg" xmlns:xlink="http://www.w3.org/1999/xlink" version="1.1" width="256" height="256" viewBox="0 0 256 256" xml:space="preserve">

<defs>
</defs>
<g style="stroke: none; stroke-width: 0; stroke-dasharray: none; stroke-linecap: butt; stroke-linejoin: miter; stroke-miterlimit: 10; fill: none; fill-rule: nonzero; opacity: 1;" transform="translate(1.4065934065934016 1.4065934065934016) scale(2.81 2.81)" >
	<path d="M 60.757 56.002 l 8.559 8.558 c 0.501 2.89 -1.22 4.39 -4.755 4.755 l -8.559 -8.559 C 55.803 57.248 57.388 55.663 60.757 56.002 z" style="stroke: none; stroke-width: 1; stroke-dasharray: none; stroke-linecap: butt; stroke-linejoin: miter; stroke-miterlimit: 10; fill: rgb(181,181,181); fill-rule: nonzero; opacity: 1;" transform=" matrix(1 0 0 1 0 0) " stroke-linecap="round" />
	<circle cx="34.266" cy="34.266" r="34.266" style="stroke: none; stroke-width: 1; stroke-dasharray: none; stroke-linecap: butt; stroke-linejoin: miter; stroke-miterlimit: 10; fill: rgb(206,206,206); fill-rule: nonzero; opacity: 1;" transform="  matrix(1 0 0 1 0 0) "/>
	<circle cx="34.268" cy="34.268" r="26.868" style="stroke: none; stroke-width: 1; stroke-dasharray: none; stroke-linecap: butt; stroke-linejoin: miter; stroke-miterlimit: 10; fill: rgb(255,255,255); fill-rule: nonzero; opacity: 1;" transform="  matrix(1 0 0 1 0 0) "/>
	<path d="M 87.978 87.978 L 87.978 87.978 c -2.697 2.697 -7.069 2.697 -9.765 0 L 62.056 71.821 l 9.765 -9.765 l 16.157 16.157 C 90.674 80.909 90.674 85.281 87.978 87.978 z" style="stroke: none; stroke-width: 1; stroke-dasharray: none; stroke-linecap: butt; stroke-linejoin: miter; stroke-miterlimit: 10; fill: rgb(198,84,84); fill-rule: nonzero; opacity: 1;" transform=" matrix(1 0 0 1 0 0) " stroke-linecap="round" />
	<path d="M 31.956 15.73 L 14.93 42.365 c -0.839 1.312 0.104 3.032 1.66 3.032 h 34.052 c 1.557 0 2.499 -1.72 1.66 -3.032 L 35.277 15.73 C 34.502 14.517 32.731 14.517 31.956 15.73 z" style="stroke: none; stroke-width: 1; stroke-dasharray: none; stroke-linecap: butt; stroke-linejoin: miter; stroke-miterlimit: 10; fill: rgb(249,198,107); fill-rule: nonzero; opacity: 1;" transform=" matrix(1 0 0 1 0 0) " stroke-linecap="round" />
	<path d="M 33.617 40.504 c -1.104 0 -2 -0.896 -2 -2 s 0.896 -2.016 2 -2.016 s 2 0.88 2 1.984 v 0.031 C 35.617 39.609 34.721 40.504 33.617 40.504 z" style="stroke: none; stroke-width: 1; stroke-dasharray: none; stroke-linecap: butt; stroke-linejoin: miter; stroke-miterlimit: 10; fill: rgb(198,84,84); fill-rule: nonzero; opacity: 1;" transform=" matrix(1 0 0 1 0 0) " stroke-linecap="round" />
	<path d="M 33.617 34.792 c -1.104 0 -2 -0.896 -2 -2 v -5.943 c 0 -1.104 0.896 -2 2 -2 s 2 0.896 2 2 v 5.943 C 35.617 33.897 34.721 34.792 33.617 34.792 z" style="stroke: none; stroke-width: 1; stroke-dasharray: none; stroke-linecap: butt; stroke-linejoin: miter; stroke-miterlimit: 10; fill: rgb(198,84,84); fill-rule: nonzero; opacity: 1;" transform=" matrix(1 0 0 1 0 0) " stroke-linecap="round" />
</g>
</svg>